<svg width="36" height="36" viewBox="0 0 36 36" fill="none" xmlns="http://www.w3.org/2000/svg">
<rect width="36" height="36" rx="8" fill="#FF8474"/>
<path d="M24.4907 13.5034H13.357V8.61199C13.357 8.36063 13.5695 8.15626 13.8308 8.15626H22.1692C22.4305 8.15626 22.643 8.36063 22.643 8.61199V10.8299C22.643 11.3334 23.0672 11.7414 23.5905 11.7414C24.1139 11.7414 24.5381 11.3334 24.5381 10.8299V8.61199C24.5381 7.35553 23.4754 6.33334 22.1692 6.33334H13.8308C12.5246 6.33334 11.4619 7.35553 11.4619 8.61199V13.5047C9.91643 13.5291 8.66667 14.7455 8.66667 16.2378V26.9323C8.66667 28.4401 9.94179 29.6667 11.5093 29.6667H24.4907C26.0582 29.6667 27.3333 28.4401 27.3333 26.9323V16.2378C27.3333 14.7302 26.0582 13.5034 24.4907 13.5034ZM25.4382 26.9323C25.4382 27.4349 25.0131 27.8438 24.4907 27.8438H11.5093C10.9869 27.8438 10.5618 27.4349 10.5618 26.9323V16.2378C10.5618 15.7353 10.9869 15.3263 11.5093 15.3263H24.4907C25.0131 15.3263 25.4382 15.7353 25.4382 16.2378V26.9323ZM18.6698 17.3554C18.3 16.9997 17.6996 16.9995 17.3297 17.3554L13.603 20.9407C13.4253 21.1116 13.3256 21.3434 13.3256 21.5851V25.1703C13.3256 25.6735 13.7497 26.0817 14.2731 26.0817H21.7269C22.2503 26.0817 22.6744 25.6735 22.6744 25.1703V21.5851C22.6744 21.3434 22.5747 21.1116 22.397 20.9407L18.6698 17.3554ZM20.7794 24.2588H15.2207V21.9627L17.9998 19.289L20.7794 21.9627V24.2588Z" fill="white"/>
</svg>
