<svg width="36" height="36" viewBox="0 0 36 36" fill="none" xmlns="http://www.w3.org/2000/svg">
<rect width="36" height="36" rx="8" fill="#FF8474"/>
<mask id="mask0" mask-type="alpha" maskUnits="userSpaceOnUse" x="6" y="7" width="25" height="24">
<path fill-rule="evenodd" clip-rule="evenodd" d="M6.33334 7.49988H30.2179V30.251H6.33334V7.49988Z" fill="white"/>
</mask>
<g mask="url(#mask0)">
<path fill-rule="evenodd" clip-rule="evenodd" d="M8.46099 18.1435C10.0967 23.2325 16.5588 27.3473 18.2762 28.3658C19.9993 27.3368 26.5082 23.1765 28.0913 18.1482C29.1308 14.8978 28.166 10.7807 24.3323 9.54515C22.475 8.94898 20.3085 9.31182 18.8128 10.4692C18.5002 10.7095 18.0662 10.7142 17.7512 10.4762C16.1668 9.28498 14.0972 8.93615 12.2107 9.54515C8.38282 10.7795 7.42149 14.8967 8.46099 18.1435ZM18.2773 30.2512C18.1327 30.2512 17.9892 30.2162 17.8585 30.145C17.4933 29.9455 8.89149 25.2042 6.79499 18.6778C6.79382 18.6778 6.79382 18.6767 6.79382 18.6767C5.47782 14.5677 6.94315 9.40399 11.674 7.87915C13.8953 7.16049 16.3162 7.47665 18.2738 8.71215C20.1708 7.51282 22.6908 7.18149 24.8678 7.87915C29.6033 9.40632 31.0733 14.5688 29.7585 18.6767C27.7297 25.1283 19.0648 29.9408 18.6973 30.1427C18.5667 30.215 18.422 30.2512 18.2773 30.2512Z" fill="white"/>
</g>
</svg>
