<svg width="36" height="36" viewBox="0 0 36 36" fill="none" xmlns="http://www.w3.org/2000/svg">
<rect width="36" height="36" rx="8" fill="#FF8474"/>
<path d="M28.2639 26.3685L26.1125 21.9319C25.7357 21.1549 24.9781 20.6721 24.1356 20.6721H23.6121L23.7181 20.5629C26.8709 17.3119 26.8709 12.0224 23.7181 8.77145C20.5651 5.52064 15.4351 5.52064 12.2821 8.77145C9.1293 12.0224 9.1293 17.3119 12.2821 20.5629L12.3881 20.6721H11.8646C11.0219 20.6721 10.2645 21.1549 9.8876 21.9319L7.73634 26.3685C7.00067 27.8854 8.07198 29.6667 9.71322 29.6667H26.287C27.9317 29.6667 28.998 27.8822 28.2639 26.3685ZM13.5325 10.0607C15.9959 7.52069 20.004 7.52069 22.4676 10.0607C24.931 12.6007 24.931 16.7337 22.4676 19.2737C22.2086 19.5407 18.2599 23.6122 18 23.8802C17.7402 23.6122 13.7914 19.5407 13.5325 19.2737C11.0689 16.7337 11.0689 12.6007 13.5325 10.0607ZM26.287 27.8434H9.71322C9.38431 27.8434 9.17074 27.4868 9.31784 27.1838L11.4691 22.7474C11.5445 22.5918 11.696 22.4953 11.8645 22.4953H14.1563L17.3749 25.814C17.7202 26.17 18.2799 26.17 18.6252 25.814L21.8438 22.4953H24.1356C24.3041 22.4953 24.4555 22.5918 24.531 22.7474L26.6824 27.1838C26.8293 27.487 26.6156 27.8434 26.287 27.8434ZM18 18.0133C19.9258 18.0133 21.4923 16.398 21.4923 14.4124C21.4923 12.4269 19.9258 10.8116 18 10.8116C16.0744 10.8116 14.5078 12.4269 14.5078 14.4124C14.5078 16.398 16.0744 18.0133 18 18.0133ZM18 12.6347C18.9507 12.6347 19.7241 13.4322 19.7241 14.4124C19.7241 15.3925 18.9507 16.1901 18 16.1901C17.0494 16.1901 16.2759 15.3925 16.2759 14.4124C16.2759 13.4322 17.0494 12.6347 18 12.6347Z" fill="white"/>
</svg>
