<svg width="36" height="36" viewBox="0 0 36 36" fill="none" xmlns="http://www.w3.org/2000/svg">
<rect width="36" height="36" rx="8" fill="#FF8474"/>
<path fill-rule="evenodd" clip-rule="evenodd" d="M24.8679 18.1709C24.4386 18.1709 24.0641 17.8547 24.0023 17.4172C23.9358 16.9377 24.2683 16.4956 24.7478 16.4291C25.9611 16.2587 26.8769 15.2064 26.8793 13.9791C26.8793 12.7622 26.0066 11.7332 24.8038 11.5361C24.3278 11.4579 24.0046 11.0076 24.0828 10.5304C24.1621 10.0532 24.6089 9.73357 25.0884 9.8094C27.1394 10.1466 28.6293 11.9012 28.6293 13.9814C28.6246 16.0756 27.0601 17.8722 24.9893 18.1627C24.9484 18.1686 24.9076 18.1709 24.8679 18.1709Z" fill="white"/>
<mask id="mask0" mask-type="alpha" maskUnits="userSpaceOnUse" x="26" y="20" width="5" height="6">
<path fill-rule="evenodd" clip-rule="evenodd" d="M26.1412 20.3352H30.5675V25.6197H26.1412V20.3352Z" fill="white"/>
</mask>
<g mask="url(#mask0)">
<path fill-rule="evenodd" clip-rule="evenodd" d="M28.3383 25.6197C27.986 25.6197 27.6535 25.4051 27.5205 25.0562C27.3478 24.6047 27.5753 24.0984 28.0268 23.9269C28.8178 23.6259 28.8178 23.2934 28.8178 23.1336C28.8178 22.6226 28.168 22.2656 26.887 22.0742C26.4098 22.0019 26.0796 21.5574 26.1508 21.0779C26.222 20.5996 26.6653 20.2811 27.1471 20.3429C29.974 20.7664 30.5678 22.0941 30.5678 23.1336C30.5678 23.7682 30.3181 24.9267 28.6498 25.5626C28.5471 25.6011 28.4421 25.6197 28.3383 25.6197Z" fill="white"/>
</g>
<path fill-rule="evenodd" clip-rule="evenodd" d="M17.8678 22.5663C15.0958 22.5663 11.7906 22.907 11.7906 24.5286C11.7906 26.1631 15.0958 26.5061 17.8678 26.5061C20.6398 26.5061 23.9438 26.1666 23.9438 24.5485C23.9438 22.9105 20.6398 22.5663 17.8678 22.5663ZM17.8678 28.2562C15.9323 28.2562 10.0406 28.2562 10.0406 24.5286C10.0406 20.8163 15.9323 20.8163 17.8678 20.8163C19.8033 20.8163 25.6938 20.8163 25.6938 24.5485C25.6938 28.2562 20.0086 28.2562 17.8678 28.2562Z" fill="white"/>
<path fill-rule="evenodd" clip-rule="evenodd" d="M17.8678 10.4167C15.8938 10.4167 14.2885 12.0232 14.2885 13.9972C14.285 14.9538 14.6513 15.8487 15.3221 16.5242C15.993 17.1997 16.8866 17.5742 17.8386 17.5777L17.8678 18.4527V17.5777C19.8418 17.5777 21.4483 15.9723 21.4483 13.9972C21.4483 12.0232 19.8418 10.4167 17.8678 10.4167ZM17.8678 19.3277H17.8363C16.413 19.323 15.0795 18.7653 14.0808 17.7573C13.0798 16.7505 12.5326 15.4135 12.5385 13.9937C12.5385 11.0583 14.929 8.66666 17.8678 8.66666C20.8078 8.66666 23.1983 11.0583 23.1983 13.9972C23.1983 16.936 20.8078 19.3277 17.8678 19.3277Z" fill="white"/>
<path fill-rule="evenodd" clip-rule="evenodd" d="M10.8667 18.1709C10.827 18.1709 10.7862 18.1686 10.7453 18.1627C8.67448 17.8722 7.11115 16.0756 7.10648 13.9837C7.10648 11.9012 8.59632 10.1466 10.6473 9.80941C11.1385 9.73241 11.5737 10.0556 11.653 10.5304C11.7312 11.0076 11.408 11.4579 10.932 11.5361C9.72915 11.7332 8.85648 12.7622 8.85648 13.9814C8.85882 15.2064 9.77465 16.2599 10.9868 16.4291C11.4663 16.4956 11.7988 16.9377 11.7323 17.4172C11.6705 17.8547 11.296 18.1709 10.8667 18.1709Z" fill="white"/>
<path fill-rule="evenodd" clip-rule="evenodd" d="M7.39745 25.6197C7.29362 25.6197 7.18862 25.6011 7.08595 25.5626C5.41645 24.9256 5.16679 23.7671 5.16679 23.1336C5.16679 22.0952 5.76062 20.7664 8.58862 20.3429C9.07045 20.2822 9.51145 20.5996 9.58379 21.0779C9.65495 21.5574 9.32479 22.0019 8.84762 22.0742C7.56662 22.2656 6.91679 22.6226 6.91679 23.1336C6.91679 23.2934 6.91679 23.6247 7.70895 23.9269C8.16045 24.0984 8.38795 24.6047 8.21529 25.0562C8.08229 25.4051 7.74979 25.6197 7.39745 25.6197Z" fill="white"/>
</svg>
