<svg width="24" height="24" viewBox="0 0 24 24" fill="none" xmlns="http://www.w3.org/2000/svg">
<path d="M15 1.5L9 3.75L0.75 1.5V15H2.25V16.5H0.75V20.25L9 22.5L15 20.25L23.25 22.5V3.75L15 1.5ZM6.525 16.5H3.675V15H6.525V16.5ZM8.025 16.4625L7.875 15C8.64854 14.9208 9.36111 14.5443 9.8625 13.95L10.9875 14.925C10.2361 15.8014 9.1742 16.3525 8.025 16.4625ZM12.075 12V12.1125C12.0693 12.5713 11.9934 13.0266 11.85 13.4625L10.425 12.975C10.5169 12.6964 10.5674 12.4058 10.575 12.1125V12C10.5693 11.3398 10.7102 10.6866 10.9875 10.0875L12.375 10.725C12.1811 11.1223 12.0786 11.5579 12.075 12ZM15.075 9C14.3253 9.00026 13.6029 9.2812 13.05 9.7875L12.0375 8.7C12.864 7.93373 13.948 7.5055 15.075 7.5V9ZM20.4 10.6125C20.2598 10.7499 20.0713 10.8269 19.875 10.8269C19.6787 10.8269 19.4902 10.7499 19.35 10.6125L18.0375 9.3L16.6875 10.65C16.5431 10.7583 16.3644 10.8109 16.1843 10.7981C16.0043 10.7853 15.8348 10.708 15.7072 10.5803C15.5795 10.4527 15.5022 10.2832 15.4894 10.1032C15.4766 9.92308 15.5292 9.74443 15.6375 9.6L16.9875 8.25L15.675 6.9375C15.5667 6.79307 15.5141 6.61442 15.5269 6.43433C15.5397 6.25425 15.617 6.08483 15.7447 5.95717C15.8723 5.82951 16.0418 5.75218 16.2218 5.73939C16.4019 5.72659 16.5806 5.77918 16.725 5.8875L18.0375 7.2L19.3125 5.925C19.377 5.83904 19.4592 5.76793 19.5535 5.7165C19.6479 5.66506 19.7521 5.6345 19.8593 5.62689C19.9665 5.61927 20.0741 5.63477 20.1748 5.67235C20.2754 5.70992 20.3668 5.76869 20.4428 5.84467C20.5188 5.92065 20.5776 6.01207 20.6152 6.11274C20.6527 6.21341 20.6682 6.32098 20.6606 6.42817C20.653 6.53535 20.6224 6.63965 20.571 6.73399C20.5196 6.82834 20.4485 6.91053 20.3625 6.975L19.0875 8.25L20.4 9.5625C20.5374 9.7027 20.6144 9.89119 20.6144 10.0875C20.6144 10.2838 20.5374 10.4723 20.4 10.6125Z" fill="#006665"/>
</svg>
