<svg width="62" height="62" viewBox="0 0 62 62" fill="none" xmlns="http://www.w3.org/2000/svg">
<rect width="62" height="62" rx="16" fill="#FF8474"/>
<path d="M44.9781 43.041L35.848 33.9109C37.2648 32.0793 38.0312 29.8398 38.0312 27.4844C38.0312 24.6648 36.9309 22.0211 34.941 20.0277C32.9512 18.0344 30.3004 16.9375 27.4844 16.9375C24.6684 16.9375 22.0176 18.0379 20.0277 20.0277C18.0344 22.0176 16.9375 24.6648 16.9375 27.4844C16.9375 30.3004 18.0379 32.9512 20.0277 34.941C22.0176 36.9344 24.6648 38.0312 27.4844 38.0312C29.8398 38.0312 32.0758 37.2648 33.9074 35.8516L43.0375 44.9781C43.0643 45.0049 43.0961 45.0262 43.131 45.0407C43.166 45.0552 43.2035 45.0626 43.2414 45.0626C43.2793 45.0626 43.3168 45.0552 43.3518 45.0407C43.3868 45.0262 43.4185 45.0049 43.4453 44.9781L44.9781 43.4488C45.0049 43.4221 45.0262 43.3903 45.0407 43.3553C45.0552 43.3203 45.0626 43.2828 45.0626 43.2449C45.0626 43.2071 45.0552 43.1695 45.0407 43.1346C45.0262 43.0996 45.0049 43.0678 44.9781 43.041ZM33.0531 33.0531C31.5625 34.5402 29.5867 35.3594 27.4844 35.3594C25.382 35.3594 23.4063 34.5402 21.9156 33.0531C20.4285 31.5625 19.6094 29.5867 19.6094 27.4844C19.6094 25.382 20.4285 23.4027 21.9156 21.9156C23.4063 20.4285 25.382 19.6094 27.4844 19.6094C29.5867 19.6094 31.566 20.425 33.0531 21.9156C34.5402 23.4063 35.3594 25.382 35.3594 27.4844C35.3594 29.5867 34.5402 31.566 33.0531 33.0531Z" fill="white"/>
</svg>
